<svg id="Capa_1" data-name="Capa 1" xmlns="http://www.w3.org/2000/svg" viewBox="0 0 184.65 145.99"><defs><style>.cls-1,.cls-6{fill:#f2f2f2;}.cls-2{fill:#b3b2b2;}.cls-3{fill:#e53112;}.cls-4{fill:#2c9eaa;}.cls-5{fill:#de3c21;}.cls-6{font-size:27px;font-family:Impact;letter-spacing:0.06em;}</style></defs><path class="cls-1" d="M437.59,260c-7.69-7-21.1-9.55-32.35,1.43l-38,37.84v26.92L413,269.34c5.23-6.17,13.27-4.56,17.06-1.11a7.91,7.91,0,0,1,2.22,8.75c-.18.55-.32,1-.45,1.51l7.52,4.31a.13.13,0,0,1,0-.06C445,275.76,445.18,266.9,437.59,260Z" transform="translate(-359.39 -250.83)"/><path class="cls-2" d="M436.08,256.87c-7.7-7-21.09-9.56-32.36,1.41l-37.66,37.55,1.92,2.72,37.26-37.13c11.25-11,24.66-8.43,32.35-1.43a19.86,19.86,0,0,1,3.53,4.19A18,18,0,0,0,436.08,256.87Z" transform="translate(-359.39 -250.83)"/><path class="cls-1" d="M465.85,260c7.69-7,21.09-9.55,32.34,1.43l38,37.84v26.92l-45.78-56.84c-5.23-6.17-13.27-4.56-17.06-1.11a7.92,7.92,0,0,0-2.22,8.75c.18.55.33,1,.46,1.51l-7.52,4.31s0,0,0-.06C458.39,275.76,458.25,266.9,465.85,260Z" transform="translate(-359.39 -250.83)"/><path class="cls-2" d="M467.35,256.87c7.7-7,21.1-9.56,32.36,1.41l37.66,37.55-1.92,2.72-37.26-37.13c-11.25-11-24.65-8.43-32.34-1.43a19.62,19.62,0,0,0-3.54,4.19A18.05,18.05,0,0,1,467.35,256.87Z" transform="translate(-359.39 -250.83)"/><polygon class="cls-3" points="153.98 95.66 174.23 75.42 174.23 63 141.56 95.66 153.98 95.66"/><path class="cls-1" d="M531.52,291.59H371.91a12.55,12.55,0,0,0-12.52,12.52V344.8a12.56,12.56,0,0,0,12.52,12.52h56.33c13.95-1.84,13.49-28.49,21.33-33.82.59-.4,3.52-.59,4.5.14,7.64,5.63,7.3,31.85,21.12,33.68h56.33A12.56,12.56,0,0,0,544,344.8V304.11A12.55,12.55,0,0,0,531.52,291.59Z" transform="translate(-359.39 -250.83)"/><path class="cls-4" d="M431.9,335.54A11,11,0,0,1,421,346.49H380.77a11,11,0,0,1-10.95-10.95V313.37a11,11,0,0,1,10.95-10.95H421a11,11,0,0,1,10.95,10.95Z" transform="translate(-359.39 -250.83)"/><path class="cls-5" d="M533.62,335.54a11,11,0,0,1-11,10.95H482.48a11,11,0,0,1-11-10.95V313.37a11,11,0,0,1,11-10.95h40.18a11,11,0,0,1,11,10.95Z" transform="translate(-359.39 -250.83)"/><path class="cls-2" d="M369.37,295.25H534.06a12.85,12.85,0,0,1,8.72,3.42,12.57,12.57,0,0,0-11.26-7.08H371.91a12.55,12.55,0,0,0-11.25,7.08A12.82,12.82,0,0,1,369.37,295.25Z" transform="translate(-359.39 -250.83)"/><text class="cls-6" transform="translate(11.17 135.99) scale(1.1 1.12)"><tspan xml:space="preserve">THE  MOVIES</tspan></text></svg>